<?xml version="1.0" encoding="utf-8"?>
<!-- Generator: Adobe Illustrator 25.0.0, SVG Export Plug-In . SVG Version: 6.00 Build 0)  -->
<svg width='40px' height='40px' version="1.1" id="Layer_1" xmlns="http://www.w3.org/2000/svg" xmlns:xlink="http://www.w3.org/1999/xlink" x="0px" y="0px"
	 viewBox="0 0 40 40" style="enable-background:new 0 0 40 40;" xml:space="preserve">
<style type="text/css">
	.st0{fill:#5C6BC0;}
	.st1{fill-rule:evenodd;clip-rule:evenodd;fill:#283593;}
	.st2{fill-rule:evenodd;clip-rule:evenodd;fill:#FFFFFF;}
</style>
<g id="Surfaces">
	<g id="Drawing_Surface">
		<g id="Outline_no_shadow">
			<path class="st0" d="M7.1,0.5h25.8c3.9,0,7.1,3.2,7.1,7.1v24.8c0,3.9-3.2,7.1-7.1,7.1H7.1c-3.9,0-7.1-3.2-7.1-7.1V7.6
				C0,3.7,3.2,0.5,7.1,0.5z"/>
		</g>
	</g>
</g>
<g>
	<path class="st1" d="M19.1,3.7c0.5-0.3,1.2-0.3,1.7,0c2.7,1.5,10.6,6,13.3,7.5c0.5,0.3,0.8,0.8,0.8,1.4v14.9c0,0.6-0.3,1.1-0.8,1.4
		l-13.3,7.5c-0.5,0.3-1.2,0.3-1.7,0L5.8,29C5.3,28.7,5,28.1,5,27.5V12.6c0-0.6,0.3-1.1,0.8-1.4C8.5,9.7,16.5,5.2,19.1,3.7z"/>
	<path class="st2" d="M20,9c6.1,0,11.1,4.9,11.1,11.1S26,31.2,20,31.2s-11.1-5-11.1-11.1S13.9,9,20,9z M20,14.5c3,0,5.6,2.5,5.6,5.6
		S23,25.6,20,25.6s-5.6-2.5-5.6-5.6S16.9,14.5,20,14.5z"/>
	<path class="st1" d="M34.6,11.6c0.4,0.4,0.4,1,0.4,1.4c0,3,0,11.6,0,14.5c0,0.3-0.1,0.6-0.2,0.9l-15.1-8.4L34.6,11.6z"/>
</g>
</svg>