<svg xmlns="http://www.w3.org/2000/svg" width="40" height="40" version="1.1" id="Layer_1" x="0" y="0" viewBox="0 0 2500 2500" xml:space="preserve"><g id="Surfaces" transform="matrix(1.00004 0 0 1.02573 0 -32.105)"><g id="Drawing_Surface"><g id="Outline_no_shadow"><path class="st0" d="M442.4 31.3h1615.1c244.7 0 442.4 197.7 442.4 442.4v1552.5c0 244.7-197.7 442.4-442.4 442.4H442.4C197.7 2468.7 0 2270.9 0 2026.2V473.8C0 229.1 197.7 31.3 442.4 31.3z" id="path4" fill="#f7df1e"/></g></g></g><path d="M781.9 2078.4L958 1971.8c34 60.3 64.9 111.2 139.1 111.2 71.1 0 115.9-27.8 115.9-136v-735.6h216.3V1950c0 224.1-131.3 326.1-323 326.1-173 .1-273.5-89.5-324.4-197.7m765-23.1l176.1-102c46.4 75.7 106.6 131.4 213.3 131.4 89.6 0 146.8-44.8 146.8-106.6 0-74.2-58.7-100.4-157.6-143.7l-54.1-23.2c-156.1-66.4-259.6-149.9-259.6-326 0-162.3 123.6-285.9 316.8-285.9 137.5 0 236.4 47.9 307.5 173.1l-168.5 108.2c-37.1-66.4-77.3-92.7-139.1-92.7-63.4 0-103.5 40.2-103.5 92.7 0 64.9 40.2 91.2 132.9 131.4l54.1 23.2c183.9 78.8 287.4 159.2 287.4 340 0 194.7-153 301.3-358.5 301.3-200.9-.2-330.7-96.1-394-221.2"/></svg>
