<?xml version="1.0" encoding="utf-8"?>
<!-- Generator: Adobe Illustrator 25.0.0, SVG Export Plug-In . SVG Version: 6.00 Build 0)  -->
<svg width='40px' height='40px' version="1.1"
	 id="svg2169" xmlns:cc="http://web.resource.org/cc/" xmlns:dc="http://purl.org/dc/elements/1.1/" xmlns:inkscape="http://www.inkscape.org/namespaces/inkscape" xmlns:rdf="http://www.w3.org/1999/02/22-rdf-syntax-ns#" xmlns:sodipodi="http://sodipodi.sourceforge.net/DTD/sodipodi-0.dtd" xmlns:svg="http://www.w3.org/2000/svg"
	 xmlns="http://www.w3.org/2000/svg" xmlns:xlink="http://www.w3.org/1999/xlink" x="0px" y="0px" viewBox="0 0 40 40"
	 style="enable-background:new 0 0 40 40;" xml:space="preserve">
<style type="text/css">
	.st0{fill:#1F3F5C;}
	.st1{fill:url(#path8615_1_);}
	.st2{fill:url(#path8620_1_);}
	.st3{fill:#FFFFFF;}
</style>
<g id="Surfaces">
	<g id="Drawing_Surface">
		<g id="Outline_no_shadow">
			<path class="st0" d="M7.1,0.5h25.8c3.9,0,7.1,3.2,7.1,7.1v24.8c0,3.9-3.2,7.1-7.1,7.1H7.1c-3.9,0-7.1-3.2-7.1-7.1V7.6
				C0,3.7,3.2,0.5,7.1,0.5z"/>
		</g>
	</g>
</g>
<g id="layer1" transform="translate(-473.36088,-251.72485)" inkscape:groupmode="layer" inkscape:label="Calque 1">
	<g id="g1894" transform="translate(428.42338,184.2561)">

			<linearGradient id="path8615_1_" gradientUnits="userSpaceOnUse" x1="143.8397" y1="1114.4369" x2="157.2036" y2="1127.8456" gradientTransform="matrix(1 0 0 1 -89.875 -1038)">
			<stop  offset="0" style="stop-color:#387EB8"/>
			<stop  offset="1" style="stop-color:#366994"/>
		</linearGradient>
		<path id="path8615" class="st1" d="M64.8,74.1c-6.9,0-6.5,3-6.5,3v3H65V81h-9.1c0,0-4.4-0.5-4.4,6.5c0,7,3.9,6.7,3.9,6.7h2.3v-3.2
			c0,0-0.1-3.9,3.8-3.9s6.5,0,6.5,0s3.7,0.1,3.7-3.5c0-3.6,0-5.9,0-5.9S72,74.1,64.8,74.1z M61.2,76.1c0.6,0,1.2,0.5,1.2,1.2
			c0,0.6-0.5,1.2-1.2,1.2c-0.6,0-1.2-0.5-1.2-1.2C60.1,76.7,60.6,76.1,61.2,76.1z"/>

			<linearGradient id="path8620_1_" gradientUnits="userSpaceOnUse" x1="152.0189" y1="1123.0132" x2="166.3718" y2="1136.764" gradientTransform="matrix(1 0 0 1 -89.875 -1038)">
			<stop  offset="0" style="stop-color:#FFE052"/>
			<stop  offset="1" style="stop-color:#FFC331"/>
		</linearGradient>
		<path id="path8620" class="st2" d="M65,100.9c6.9,0,6.5-3,6.5-3v-3h-6.5V94H74c0,0,4.4,0.5,4.4-6.5c0-7-3.9-6.7-3.9-6.7h-2.3v3.2
			c0,0,0.1,3.9-3.8,3.9c-3.9,0-6.5,0-6.5,0s-3.7-0.1-3.7,3.5c0,3.6,0,5.9,0,5.9S57.8,100.9,65,100.9z M68.7,98.9
			c-0.6,0-1.2-0.5-1.2-1.2c0-0.6,0.5-1.2,1.2-1.2c0.6,0,1.2,0.5,1.2,1.2C69.8,98.3,69.3,98.9,68.7,98.9z"/>
	</g>
</g>
<circle class="st3" cx="16.3" cy="9.8" r="1.2"/>
<circle class="st3" cx="23.7" cy="30.2" r="1.2"/>
</svg>