<?xml version="1.0" encoding="UTF-8" standalone="no"?>
<svg
   xmlns:dc="http://purl.org/dc/elements/1.1/"
   xmlns:cc="http://creativecommons.org/ns#"
   xmlns:rdf="http://www.w3.org/1999/02/22-rdf-syntax-ns#"
   xmlns:svg="http://www.w3.org/2000/svg"
   xmlns="http://www.w3.org/2000/svg"
   xmlns:sodipodi="http://sodipodi.sourceforge.net/DTD/sodipodi-0.dtd"
   xmlns:inkscape="http://www.inkscape.org/namespaces/inkscape"
   width="40"
   height="40"
   viewBox="0 0 4.1124498 4.112"
   preserveAspectRatio="xMinYMin meet"
   version="1.1"
   id="svg34"
   sodipodi:docname="vim2.svg"
   inkscape:version="0.92.5 (2060ec1f9f, 2020-04-08)">
  <metadata
     id="metadata40">
    <rdf:RDF>
      <cc:Work
         rdf:about="">
        <dc:format>image/svg+xml</dc:format>
        <dc:type
           rdf:resource="http://purl.org/dc/dcmitype/StillImage" />
        <dc:title />
      </cc:Work>
    </rdf:RDF>
  </metadata>
  <defs
     id="defs38" />
  <sodipodi:namedview
     pagecolor="#ffffff"
     bordercolor="#666666"
     borderopacity="1"
     objecttolerance="10"
     gridtolerance="10"
     guidetolerance="10"
     inkscape:pageopacity="0"
     inkscape:pageshadow="2"
     inkscape:window-width="1366"
     inkscape:window-height="708"
     id="namedview36"
     showgrid="false"
     inkscape:zoom="25.894945"
     inkscape:cx="-4.3720022"
     inkscape:cy="25.364198"
     inkscape:window-x="0"
     inkscape:window-y="28"
     inkscape:window-maximized="1"
     inkscape:current-layer="layer1" />
  <g
     inkscape:groupmode="layer"
     id="layer1"
     inkscape:label="Background"
     style="display:inline">
    <rect
       style="opacity:1;fill:#00900f;fill-opacity:0.94117647;stroke-width:0.05569757"
       id="rect866"
       width="4.1124496"
       height="4.1124496"
       x="-8.6736174e-19"
       y="1.540039e-07"
       ry="0.67758852"
       inkscape:transform-center-x="0.045436677"
       inkscape:transform-center-y="0.10601901" />
    <g
       id="g863"
       transform="matrix(0.01325301,0,0,0.01323533,0.34826687,0.37141201)">
      <path
         id="path2"
         d="M 128.286,1.952 1.945,127.885 128.286,254.4 254.047,127.885 128.286,1.952"
         inkscape:connector-curvature="0"
         style="fill:#019833" />
      <path
         id="path4"
         d="M 128.264,13.516 V 2.885 L 2.774,127.908 H 13.527 L 128.264,13.516"
         inkscape:connector-curvature="0"
         style="fill:#66fe98" />
      <path
         id="path6"
         d="M 128.264,13.516 V 2.885 l 125.88,125.023 H 242.508 L 128.264,13.516"
         inkscape:connector-curvature="0"
         style="fill:#45fe02" />
      <path
         id="path8"
         d="m 128.264,242.836 v 11.769 L 2.774,127.908 h 10.753 l 114.737,114.928"
         inkscape:connector-curvature="0"
         style="fill:#017d17" />
      <path
         id="path10"
         d="m 128.264,242.836 v 11.769 L 254.144,127.908 H 242.508 L 128.264,242.836"
         inkscape:connector-curvature="0"
         style="fill:#005d04" />
      <path
         id="path12"
         d="M 65.226,230.591 H 40.9 l -9.5,-9.258 V 44.55 H 23.86 L 17.405,38.086 V 18.325 l 6.687,-7.253 h 85.075 l 7.649,7.658 v 18.756 l -6.356,7.747 h -6.428 v 59.758 l 60.487,-59.758 h -3.377 l -7.035,-7.587 V 17.758 l 6.912,-6.345 h 85.872 l 6.796,6.805 v 18.81 L 65.226,230.591"
         inkscape:connector-curvature="0" />
      <path
         id="path14"
         d="M 128.264,256.342 0,127.908 128.264,0 256,127.908 Z M 3.929,127.908 128.264,252.41 252.069,127.908 128.264,3.935 Z"
         inkscape:connector-curvature="0" />
      <path
         id="path16"
         d="m 108.075,22.742 3.779,-2.441 -3.861,-4.008 H 26.156 l -4.158,4.164 v 15.75 l 4.61,4.616 2.199,-4.616 -2.892,-2.897 V 22.207 l 2.169,-1.931 77.264,0.095 2.727,2.371"
         inkscape:connector-curvature="0"
         style="fill:#fefefe" />
      <path
         id="path18"
         d="m 41.458,35.833 v 184.334 l 2.592,2.468 -2.077,3.925 -5.451,-5.369 V 40.612 l 4.936,-4.779"
         inkscape:connector-curvature="0"
         style="fill:#fefefe" />
      <path
         id="path20"
         d="m 28.236,35.833 -1.628,4.99 h 9.886 l 5.719,-4.99 H 28.236"
         inkscape:connector-curvature="0"
         style="fill:#808080" />
      <path
         id="path22"
         d="m 166.531,35.897 -3.457,-2.442 v -9.896 l 3.616,-3.621 h 75.449 l 2.893,3.862 4.117,-3.249 -4.238,-3.872 h -81.114 l -4.038,4.043 v 15.871 l 4.252,3.848 m -65.615,76.31 -7.879,19.144 88.948,-89.309 -0.435,-10.804 -80.634,80.969"
         inkscape:connector-curvature="0"
         style="fill:#fefefe" />
      <path
         id="path24"
         d="m 107.897,22.671 3.957,-2.37 v 15.532 l -4.517,4.523 h -8.778 l -0.163,76.395 -7.849,19.1 V 35.833 h 14.659 l 2.727,-2.219 -0.036,-10.943 m 136.867,0.051 4.385,-2.171 V 34.734 L 62.408,226.56 H 41.973 l 1.994,-3.77 15.695,0.001 185.129,-191.412 -0.027,-8.657 m -65.734,13.06 -4.548,4.569 -10.471,0.09 2.557,-4.59 12.462,-0.069"
         inkscape:connector-curvature="0"
         style="fill:#808080" />
      <path
         id="path26"
         d="m 165.973,19.79 -2.89,2.893 v 10.624 l 2.531,2.534 h 13.372 v 10.265 l -88.46,89.783 V 35.968 h 14.701 l 3.016,-3.02 V 22.197 l -2.784,-2.154 H 28.093 l -2.531,2.535 V 33.56 l 2.573,2.577 h 13.457 v 184.002 l 2.531,2.534 H 59.415 L 244.794,31.131 v -8.448 l -2.89,-2.893 h -75.931"
         inkscape:connector-curvature="0"
         style="fill:#cccccc" />
      <path
         id="path28"
         d="M 59.519,222.918 H 44.022 L 41.348,220.24 V 36.381 H 28.034 l -2.716,-2.72 V 22.476 l 2.674,-2.677 h 77.551 l 2.945,2.278 v 10.972 l -3.159,3.163 H 90.77 v 99.081 l 87.972,-89.288 v -9.919 h -13.229 l -2.674,-2.678 V 22.582 l 3.032,-3.037 h 76.134 l 3.033,3.037 v 8.648 l -0.068,0.071 z M 44.225,222.429 H 59.312 L 244.55,31.033 v -8.249 l -2.747,-2.75 h -75.729 l -2.747,2.75 v 10.422 l 2.388,2.391 h 13.516 v 10.609 l -0.07,0.071 -88.879,90.208 V 35.724 h 14.844 l 2.873,-2.878 V 22.317 l -2.623,-2.03 H 28.194 l -2.388,2.392 v 10.78 l 2.431,2.434 h 13.599 v 184.144 z"
         inkscape:connector-curvature="0"
         style="fill:#808080" />
      <path
         id="path30"
         d="m 134.566,143.819 a 0.834,0.834 0 0 0 -0.38,0.19 l -3.585,3.083 a 0.84,0.84 0 0 0 -0.232,0.359 l -3.586,10.054 a 0.835,0.835 0 0 0 0.19,0.866 l 2.742,2.745 a 0.835,0.835 0 0 0 0.591,0.233 h 11.073 a 0.83,0.83 0 0 0 0.59,-0.233 l 2.89,-2.914 c 0.1,-0.1 0.172,-0.224 0.211,-0.359 l 3.08,-10.582 a 0.835,0.835 0 0 0 -0.211,-0.823 l -2.384,-2.387 a 0.827,0.827 0 0 0 -0.59,-0.232 h -10.23 a 0.796,0.796 0 0 0 -0.169,0 z m -20.29,28.343 a 0.833,0.833 0 0 0 -0.633,0.613 l -1.371,5.449 a 0.833,0.833 0 0 0 0.801,1.035 h 6.518 l -16.157,46.19 a 0.833,0.833 0 0 0 0.781,1.099 h 23.517 a 0.834,0.834 0 0 0 0.802,-0.571 l 1.54,-4.963 a 0.834,0.834 0 0 0 -0.802,-1.077 h -5.315 l 15.988,-46.676 a 0.833,0.833 0 0 0 -0.781,-1.099 h -24.72 a 0.943,0.943 0 0 0 -0.168,0 z m 74.835,0.169 a 0.835,0.835 0 0 0 -0.465,0.275 l -4.893,5.533 h -7.783 l -5.189,-5.385 a 0.828,0.828 0 0 0 -0.59,-0.254 h -18.582 a 0.832,0.832 0 0 0 -0.781,0.549 l -1.708,5.112 a 0.834,0.834 0 0 0 0.78,1.098 h 4.978 l -15.482,45.683 a 0.835,0.835 0 0 0 0.781,1.099 h 19.784 a 0.833,0.833 0 0 0 0.781,-0.549 l 1.518,-4.457 a 0.833,0.833 0 0 0 -0.78,-1.098 h -3.459 l 9.871,-31.111 h 17.865 l -11.263,36.138 a 0.832,0.832 0 0 0 0.801,1.077 h 19.088 a 0.834,0.834 0 0 0 0.76,-0.507 l 1.708,-4.098 a 0.832,0.832 0 0 0 -0.759,-1.14 h -3.459 l 10.04,-31.639 h 17 l -11.432,36.307 a 0.833,0.833 0 0 0 0.802,1.077 h 20.965 a 0.835,0.835 0 0 0 0.781,-0.528 l 1.708,-4.457 a 0.833,0.833 0 0 0 -0.78,-1.119 h -4.156 l 12.635,-41.079 a 0.836,0.836 0 0 0 -0.127,-0.761 l -3.923,-5.28 a 0.832,0.832 0 0 0 -0.675,-0.317 h -14.996 a 0.829,0.829 0 0 0 -0.612,0.254 l -4.725,5.195 h -8.268 l -4.893,-5.364 a 0.83,0.83 0 0 0 -0.612,-0.254 h -12.086 a 0.943,0.943 0 0 0 -0.168,0 z"
         inkscape:connector-curvature="0"
         style="fill:#cccccc" />
      <path
         id="path32"
         d="m 128.359,162.524 c 0.523,0.504 1.207,0.78 1.901,0.78 l 0.046,-0.001 h 11.039 c 0.742,0.023 1.444,-0.263 2.013,-0.81 l 2.883,-2.909 c 0.334,-0.334 0.579,-0.751 0.706,-1.195 l 3.079,-10.58 a 2.785,2.785 0 0 0 -0.705,-2.752 l -2.409,-2.413 a 2.713,2.713 0 0 0 -1.947,-0.78 h -10.16 a 2.756,2.756 0 0 0 -0.436,0.01 l -0.205,0.032 c -0.47,0.099 -0.909,0.318 -1.252,0.62 l -3.586,3.084 -0.041,0.037 c -0.349,0.318 -0.612,0.72 -0.764,1.167 l -3.578,10.031 a 2.81,2.81 0 0 0 0.647,2.907 z m 16.154,-16.751 1.575,1.577 -2.816,9.676 -2.346,2.368 -10.168,0.001 -1.897,-1.9 3.257,-9.13 3.014,-2.592 z m 97.125,31.158 -3.923,-5.28 -0.035,-0.045 a 2.792,2.792 0 0 0 -2.225,-1.06 h -14.948 a 2.763,2.763 0 0 0 -2.049,0.848 l -4.184,4.601 h -6.541 l -4.312,-4.727 -0.04,-0.043 a 2.818,2.818 0 0 0 -2.016,-0.848 h -12.016 a 2.759,2.759 0 0 0 -0.436,0.01 l -0.202,0.031 a 2.78,2.78 0 0 0 -1.529,0.893 l -4.31,4.874 h -6.071 l -4.615,-4.79 a 2.81,2.81 0 0 0 -1.995,-0.849 h -18.588 a 2.796,2.796 0 0 0 -2.612,1.837 l -1.724,5.155 a 2.792,2.792 0 0 0 2.633,3.675 h 2.252 l -14.61,43.11 a 2.794,2.794 0 0 0 1.757,3.528 c 0.277,0.092 0.565,0.141 0.878,0.144 h 19.79 a 2.807,2.807 0 0 0 2.625,-1.873 l 1.522,-4.466 a 2.793,2.793 0 0 0 -2.634,-3.674 h -0.789 l 8.631,-27.201 H 183.1 l -10.476,33.611 a 2.791,2.791 0 0 0 1.847,3.48 3.1,3.1 0 0 0 0.824,0.123 H 194.4 a 2.79,2.79 0 0 0 2.547,-1.709 l 1.722,-4.13 a 2.79,2.79 0 0 0 -2.577,-3.815 h -0.788 l 8.799,-27.729 h 12.905 l -10.637,33.782 a 2.792,2.792 0 0 0 2.657,3.601 h 20.967 a 2.817,2.817 0 0 0 2.619,-1.783 l 1.719,-4.485 a 2.791,2.791 0 0 0 -2.616,-3.745 h -1.51 l 11.847,-38.518 a 2.788,2.788 0 0 0 -0.416,-2.533 z m -16.723,44.96 h 5.169 l -0.842,2.195 h -18.676 l 11.772,-37.383 h -21.096 l -11.28,35.548 h 4.432 l -0.765,1.835 h -16.815 l 11.599,-37.214 h -21.952 l -11.111,35.019 h 4.554 l -0.748,2.195 H 141.75 l 15.854,-46.782 h -6.137 l 0.952,-2.849 h 17.287 l 5.433,5.639 h 9.495 l 5.135,-5.808 11.114,-0.001 5.124,5.619 h 9.996 l 4.955,-5.449 h 13.97 l 3.236,4.356 z m -94.819,-3.786 a 3.01,3.01 0 0 0 -0.824,-0.123 h -2.58 l 15.106,-44.099 a 2.792,2.792 0 0 0 -2.634,-3.675 h -24.65 a 2.771,2.771 0 0 0 -0.437,0.01 l -0.213,0.034 a 2.769,2.769 0 0 0 -2.117,2.046 l -1.372,5.454 a 2.794,2.794 0 0 0 2.034,3.38 c 0.212,0.052 0.431,0.08 0.664,0.081 h 3.763 l -15.255,43.615 a 2.792,2.792 0 0 0 2.634,3.674 h 23.53 c 1.204,0 2.263,-0.763 2.656,-1.946 l 1.542,-4.971 a 2.791,2.791 0 0 0 -1.847,-3.48 z m -24.292,6.488 16.541,-47.289 h -7.826 l 0.802,-3.187 h 22.264 l -16.364,47.774 h 6.534 l -0.838,2.702 z"
         inkscape:connector-curvature="0" />
    </g>
  </g>
</svg>
