<svg xmlns="http://www.w3.org/2000/svg" width="40" height="40"><path d="M7.1 1h25.8C36.8 1 40 4.2 40 8.1v24.8c0 3.9-3.2 7.1-7.1 7.1H7.1C3.2 40 0 36.8 0 32.9V8.1C0 4.2 3.2 1 7.1 1z" fill="#edebe9"/><path d="M34.4 7.8l-6.4-3c-.7-.4-1.7-.2-2.2.4L5 24.2c-.6.6-.6 1.4 0 1.9l1.7 1.6c.5.5 1.2.5 1.7.1L33.5 8.7c.8-.6 2 0 2 1v-.1c0-.8-.3-1.4-1.1-1.8z" fill="#0065a9"/><path d="M34.4 32.1l-6.4 3c-.7.4-1.7.2-2.2-.4L5 15.8c-.6-.6-.6-1.4 0-1.9l1.7-1.6c.5-.5 1.2-.5 1.7-.1l25.1 19.1c.8.6 2 0 2-1v.1c0 .7-.3 1.4-1.1 1.7z" fill="#007acc"/><path d="M28.1 35.2c-.7.4-1.7.2-2.2-.4.7.7 1.9.2 1.9-.8V6c0-1-1.2-1.5-1.9-.8.6-.6 1.5-.7 2.2-.4l6.4 3c.6.3 1.1 1 1.1 1.7v20.8c0 .7-.5 1.4-1.1 1.7l-6.4 3.2z" fill="#1f9cf0"/><g opacity=".25"><linearGradient id="a" gradientUnits="userSpaceOnUse" x1="15345.31" y1="-9435.376" x2="15345.31" y2="-9632.514" gradientTransform="matrix(.1562 0 0 -.1562 -2376.938 -1469.344)"><stop offset="0" stop-color="#fff"/><stop offset="1" stop-color="#fff" stop-opacity="0"/></linearGradient><path d="M26.5 35.3c.5.2 1 .2 1.6-.1l6.4-3c.6-.3 1.1-1 1.1-1.7V9.6c0-.7-.5-1.4-1.1-1.7l-6.4-3c-.6-.3-1.4-.3-1.9.2-.1.1-.2.1-.3.2l-12.3 11-5.3-4.1c-.5-.4-1.2-.4-1.7.1l-1.7 1.6c-.6.6-.6 1.4 0 1.9L9.5 20l-4.6 4.2c-.6.6-.6 1.4 0 1.9l1.7 1.6c.5.5 1.2.5 1.7.1l5.3-4.2 12.2 11.1c.3.3.5.5.7.6zM27.8 13l-9.3 7 9.3 7V13z" fill-rule="evenodd" clip-rule="evenodd" fill="url(#a)"/></g></svg>
